<svg width="224" height="108" viewBox="0 0 224 108" fill="none" xmlns="http://www.w3.org/2000/svg">
    <g style="mix-blend-mode:hard-light">
        <path d="M89.393 158.587C101.041 114.408 125.079 18.2204 126.711 12.4256C127.131 10.9567 127.745 9.0197 128.165 7.5831C128.666 5.88823 128.779 5.48469 129.134 4.83903C129.312 4.50006 130.249 2.85362 132.204 1.53001C132.979 1.01348 134.11 0.254823 135.596 0.157973C136.307 0.109549 137.115 0.22254 137.212 0.238681C137.922 0.335531 138.488 0.496946 138.908 0.64222C141.703 1.57843 145.822 3.82211 145.822 3.82211C148.326 5.19414 149.586 5.87209 149.861 6.0335C156.791 10.0528 166.161 17.8653 168.277 19.6408C175.369 25.5809 178.907 28.551 181.847 31.1498C189.311 37.7517 194.707 42.9977 199.731 47.8886C202.978 51.0523 207.776 55.7334 213.947 62.1416C221.152 69.6313 225.918 75.0226 231.185 80.9788C232.913 82.9319 234.981 85.3047 237.533 88.5169C239.407 90.8897 240.797 92.7783 243.559 96.5877C245.821 99.6869 249.391 104.691 251.362 108.742C251.927 109.921 252.234 110.744 252.703 112.019C253.527 114.263 253.704 115.231 253.721 116.167C253.753 117.362 253.543 118.104 253.446 118.379C253.333 118.718 253.042 119.509 252.364 120.316C251.734 121.058 251.12 121.43 250.053 122.043C249.811 122.172 249.084 122.592 247.42 123.286C245.934 123.899 244.787 124.287 244.561 124.367C242.251 125.142 241.104 125.53 238.745 126.143C236.047 126.837 193.673 138.443 86.9375 167.74C88.0683 163.591 88.9246 160.331 89.393 158.587Z" fill="url(#paint0_linear_0_1)" fill-opacity="0.9"/>
    </g>
    <g style="mix-blend-mode:hard-light">
        <path d="M0.65468 74.5039C0.767701 73.8904 0.961451 73.0185 1.21978 72.0013C1.78489 69.8378 2.65676 67.2222 4.65885 63.1534C6.99999 58.4066 9.24426 54.9998 10.6328 52.9008C12.9255 49.4295 14.9599 46.8138 16.1708 45.3123C19.7875 40.7914 22.9521 37.6107 24.4052 36.1899C26.6818 33.9779 28.6193 32.2987 30.4276 30.8618C33.6729 28.2784 35.3521 27.4065 36.2078 26.9868C38.0646 26.0826 39.3239 25.7435 41.5844 25.1623C42.4724 24.9362 43.1828 24.7909 44.087 24.8717C45.6693 25.0331 46.7672 25.8243 47.1224 26.0826C47.7844 26.5831 48.188 27.1159 48.3818 27.3743C48.8984 28.0685 49.1568 28.6821 49.2698 28.9565C49.7864 30.1836 51.1588 33.3805 52.9833 37.7076C60.9432 56.9696 68.9193 76.2154 76.8792 95.4774C54.0812 92.0383 31.2995 88.5831 8.50156 85.144C8.14635 85.0956 7.64583 85.0149 7.04843 84.9019C5.72447 84.6597 5.04635 84.5466 4.54583 84.3368C3.54478 83.9331 2.89895 83.3519 2.59218 83.0774C1.81718 82.367 1.3651 81.6565 1.18749 81.3336C0.493222 80.0904 0.364055 78.9763 0.299472 78.2498C0.105722 76.6998 0.380201 75.3758 0.65468 74.5039Z" fill="url(#paint1_linear_0_1)"/>
    </g>
    <defs>
        <linearGradient id="paint0_linear_0_1" x1="263.394" y1="-30.3703" x2="189.952" y2="210.77" gradientUnits="userSpaceOnUse">
            <stop stop-color="#FFFF1C"/>
            <stop offset="1" stop-color="#00C3FF"/>
        </linearGradient>
        <linearGradient id="paint1_linear_0_1" x1="0.234375" y1="64.6788" x2="76.6951" y2="77.6563" gradientUnits="userSpaceOnUse">
            <stop stop-color="#40E0D0"/>
            <stop offset="0.552083" stop-color="#FF8C00" stop-opacity="0.76"/>
            <stop offset="1" stop-color="#FF0080" stop-opacity="0.85"/>
        </linearGradient>
    </defs>
</svg>
