<svg width="297" height="293" viewBox="0 0 297 293" fill="none" xmlns="http://www.w3.org/2000/svg">
    <g clip-path="url(#clip0_21_22720)">
        <path d="M47.7157 0.997088C49.1714 0.371883 50.8266 0.382663 52.2769 1.03482L52.4979 0.544353C50.9128 -0.167086 49.1013 -0.183255 47.5054 0.501236L47.7211 0.997088H47.7157ZM52.2769 1.03482L102.644 23.6823L102.865 23.1919L52.4925 0.544353L52.2715 1.03482H52.2769ZM-5.04562 23.6823L47.7157 0.997088L47.5 0.501236L-5.26667 23.1865L-5.05101 23.6823H-5.04562ZM-114.995 23.7039H-5.15344V23.1649H-115V23.7039H-114.995ZM-5.15884 23.4398V23.7093H-5.10492L-5.0564 23.6877L-5.16423 23.4398H-5.15884Z" fill="white"/>
        <path d="M47.7157 99.0896C49.1714 98.4644 50.8266 98.4751 52.2769 99.1273L52.4979 98.6368C50.9128 97.9254 49.1013 97.9092 47.5054 98.5937L47.7211 99.0896H47.7157ZM52.2769 99.1273L102.644 121.775L102.865 121.284L52.4979 98.6368L52.2769 99.1273ZM-5.04562 121.775L47.7211 99.0896L47.5054 98.5937L-5.26128 121.279L-5.04562 121.775ZM-114.995 121.796H-5.15344V121.257H-115V121.796H-114.995ZM-5.15344 121.527V121.796H-5.09953L-5.05101 121.775L-5.15884 121.527H-5.15344Z" fill="white"/>
        <path d="M47.7157 197.182C49.1714 196.557 50.8266 196.568 52.2769 197.22L52.4979 196.729C50.9128 196.018 49.1013 196.002 47.5054 196.686L47.7211 197.182H47.7157ZM52.2769 197.22L102.644 219.867L102.865 219.377L52.4979 196.729L52.2769 197.22ZM-5.04562 219.867L47.7211 197.182L47.5054 196.686L-5.26128 219.371L-5.04562 219.867ZM-114.995 219.889H-5.15344V219.35H-115V219.889H-114.995ZM-5.15344 219.619V219.889H-5.09953L-5.05101 219.867L-5.15884 219.619H-5.15344Z" fill="white"/>
        <path d="M47.7157 25.2507C49.1714 24.6255 50.8266 24.6363 52.2769 25.2885L52.4979 24.798C50.9128 24.0866 49.1013 24.0704 47.5054 24.7549L47.7211 25.2507H47.7157ZM52.2769 25.2885L102.644 47.936L102.865 47.4455L52.4979 24.798L52.2769 25.2885ZM-5.04562 47.936L47.7211 25.2507L47.5054 24.7549L-5.26128 47.4401L-5.04562 47.936ZM-114.995 47.9575H-5.15344V47.4186H-115V47.9575H-114.995ZM-5.15344 47.6881V47.9575H-5.09953L-5.05101 47.936L-5.15884 47.6881H-5.15344Z" fill="white"/>
        <path d="M47.7157 123.343C49.1714 122.718 50.8266 122.729 52.2769 123.381L52.4979 122.89C50.9128 122.179 49.1013 122.163 47.5054 122.847L47.7211 123.343H47.7157ZM52.2769 123.381L102.644 146.028L102.865 145.538L52.4979 122.89L52.2769 123.381ZM-5.04562 146.028L47.7211 123.343L47.5054 122.847L-5.26128 145.533L-5.04562 146.028ZM-114.995 146.05H-5.15344V145.511H-115V146.05H-114.995ZM-5.15344 145.781V146.05H-5.09953L-5.05101 146.028L-5.15884 145.781H-5.15344Z" fill="white"/>
        <path d="M47.7157 221.436C49.1714 220.81 50.8266 220.821 52.2769 221.473L52.4979 220.983C50.9128 220.271 49.1013 220.255 47.5054 220.94L47.7211 221.436H47.7157ZM52.2769 221.473L102.644 244.121L102.865 243.63L52.4979 220.983L52.2769 221.473ZM-5.04562 244.121L47.7211 221.436L47.5054 220.94L-5.26128 243.625L-5.04562 244.121ZM-114.995 244.142H-5.15344V243.603H-115V244.142H-114.995ZM-5.15344 243.873V244.142H-5.09953L-5.05101 244.121L-5.15884 243.873H-5.15344Z" fill="white"/>
        <path d="M102.278 71.559C104.154 72.3297 106.289 72.1303 107.993 71.0308L107.701 70.5781C106.143 71.5806 104.197 71.7638 102.483 71.0578L102.278 71.559ZM107.993 71.0308L143.803 47.9198L143.512 47.4671L107.701 70.5781L107.993 71.0308ZM44.6855 47.9414L102.272 71.559L102.477 71.0578L44.8904 47.4401L44.6855 47.936V47.9414ZM143.652 47.9629H404.995V47.424H143.652V47.9629ZM143.652 47.6934V47.424H143.571L143.506 47.4671L143.652 47.6934Z" fill="white"/>
        <path d="M102.278 169.651C104.154 170.422 106.289 170.223 107.993 169.123L107.701 168.67C106.143 169.673 104.197 169.856 102.483 169.15L102.278 169.651ZM107.993 169.123L143.803 146.012L143.512 145.559L107.701 168.67L107.993 169.123ZM44.6855 146.034L102.272 169.651L102.477 169.15L44.8904 145.533L44.6855 146.028V146.034ZM143.652 146.055H404.995V145.516H143.652V146.055ZM143.652 145.786V145.516H143.571L143.506 145.559L143.652 145.786Z" fill="white"/>
        <path d="M102.278 267.744C104.154 268.515 106.289 268.315 107.993 267.216L107.701 266.763C106.143 267.766 104.197 267.949 102.483 267.243L102.278 267.744ZM107.993 267.216L143.803 244.105L143.512 243.652L107.701 266.763L107.993 267.216ZM44.6855 244.126L102.272 267.744L102.477 267.243L44.8904 243.625L44.6855 244.121V244.126ZM143.652 244.148H404.995V243.609H143.652V244.148ZM143.652 243.878V243.609H143.571L143.506 243.652L143.652 243.878Z" fill="white"/>
        <path d="M102.278 96.3516C104.154 97.1223 106.289 96.9229 107.993 95.8234L107.701 95.3707C106.143 96.3732 104.197 96.5564 102.483 95.8504L102.278 96.3516ZM107.993 95.8234L143.803 72.7124L143.512 72.2597L107.701 95.3707L107.993 95.8234ZM44.6855 72.734L102.272 96.3516L102.477 95.8504L44.8904 72.2327L44.6855 72.7286V72.734ZM143.652 72.7555H404.995V72.2166H143.652V72.7555ZM143.652 72.486V72.2166H143.571L143.506 72.2597L143.652 72.486Z" fill="white"/>
        <path d="M102.278 194.444C104.154 195.215 106.289 195.015 107.993 193.916L107.701 193.463C106.143 194.466 104.197 194.649 102.483 193.943L102.278 194.444ZM107.993 193.916L143.803 170.805L143.512 170.352L107.701 193.463L107.993 193.916ZM44.6855 170.826L102.272 194.444L102.477 193.943L44.8904 170.325L44.6855 170.821V170.826ZM143.652 170.848H404.995V170.309H143.652V170.848ZM143.652 170.578V170.309H143.571L143.506 170.352L143.652 170.578Z" fill="white"/>
        <path d="M102.278 292.536C104.154 293.307 106.289 293.108 107.993 292.008L107.701 291.556C106.143 292.558 104.197 292.741 102.483 292.035L102.278 292.536ZM107.993 292.008L143.803 268.897L143.512 268.444L107.701 291.556L107.993 292.008ZM44.6855 268.919L102.272 292.536L102.477 292.035L44.8904 268.418L44.6855 268.913V268.919ZM143.652 268.94H404.995V268.401H143.652V268.94ZM143.652 268.671V268.401H143.571L143.506 268.444L143.652 268.671Z" fill="white"/>
    </g>
    <defs>
        <clipPath id="clip0_21_22720">
            <rect width="520" height="293" fill="white" transform="translate(-115)"/>
        </clipPath>
    </defs>
</svg>
