<?xml version="1.0" encoding="UTF-8"?>
<svg id="Layer_1" data-name="Layer 1" xmlns="http://www.w3.org/2000/svg" viewBox="0 0 232 114">
  <defs>
    <style>
      .cls-1 {
        fill: #fff;
      }

      .cls-2 {
        stroke-linecap: round;
        stroke-width: 4px;
      }

      .cls-2, .cls-3, .cls-4 {
        fill: none;
        stroke: #fff;
      }

      .cls-3 {
        stroke-width: 2px;
      }
    </style>
  </defs>
  <path class="cls-1" d="M2,60.38H0v4.88l3.42-3.47-1.42-1.4Zm27.92-25.47c.78-.79,.77-2.05-.02-2.83-.79-.78-2.05-.77-2.83,.02l2.85,2.81Zm-29.92,.1v25.38H4v-25.38H0Zm3.42,26.78l26.5-26.88-2.85-2.81L.58,58.97l2.85,2.81Z"/>
  <path class="cls-2" d="M2,70l14.29-14.58,11.71,14.58"/>
  <path class="cls-1" d="M44.6,44.7c2.3,0,4.27,.5,5.9,1.5,1.67,1,2.93,2.42,3.8,4.25,.9,1.8,1.35,3.92,1.35,6.35v2.65h-18.35c.07,3.03,.83,5.35,2.3,6.95,1.5,1.57,3.58,2.35,6.25,2.35,1.7,0,3.2-.15,4.5-.45,1.33-.33,2.7-.8,4.1-1.4v3.85c-1.37,.6-2.72,1.03-4.05,1.3-1.33,.3-2.92,.45-4.75,.45-2.53,0-4.78-.52-6.75-1.55-1.93-1.03-3.45-2.57-4.55-4.6-1.07-2.07-1.6-4.58-1.6-7.55s.48-5.45,1.45-7.55c1-2.1,2.38-3.72,4.15-4.85,1.8-1.13,3.88-1.7,6.25-1.7Zm-.05,3.6c-2.1,0-3.77,.68-5,2.05-1.2,1.33-1.92,3.2-2.15,5.6h13.65c0-1.53-.23-2.87-.7-4-.47-1.13-1.18-2.02-2.15-2.65-.93-.67-2.15-1-3.65-1Zm12.75-3.1h4.7l5.8,15.25c.33,.9,.63,1.77,.9,2.6,.3,.83,.57,1.65,.8,2.45,.23,.77,.42,1.52,.55,2.25h.2c.2-.83,.52-1.92,.95-3.25,.43-1.37,.88-2.73,1.35-4.1l5.45-15.2h4.75l-11.55,30.5c-.63,1.67-1.38,3.12-2.25,4.35-.83,1.27-1.87,2.23-3.1,2.9-1.2,.7-2.67,1.05-4.4,1.05-.8,0-1.5-.05-2.1-.15-.6-.07-1.12-.15-1.55-.25v-3.5c.37,.07,.8,.13,1.3,.2,.53,.07,1.08,.1,1.65,.1,1.03,0,1.92-.2,2.65-.6,.77-.37,1.42-.92,1.95-1.65,.53-.7,.98-1.53,1.35-2.5l1.4-3.55-10.8-26.9Zm77.61,19.4c0,1.73-.43,3.18-1.3,4.35-.87,1.17-2.1,2.05-3.7,2.65s-3.5,.9-5.7,.9c-1.87,0-3.48-.15-4.85-.45-1.33-.3-2.52-.72-3.55-1.25v-4c1.07,.53,2.35,1.03,3.85,1.5,1.53,.43,3.08,.65,4.65,.65,2.23,0,3.85-.35,4.85-1.05,1-.73,1.5-1.7,1.5-2.9,0-.67-.18-1.27-.55-1.8-.37-.53-1.03-1.07-2-1.6-.93-.53-2.28-1.13-4.05-1.8-1.73-.67-3.22-1.33-4.45-2-1.23-.67-2.18-1.47-2.85-2.4s-1-2.13-1-3.6c0-2.27,.92-4.02,2.75-5.25,1.87-1.23,4.3-1.85,7.3-1.85,1.63,0,3.15,.17,4.55,.5,1.43,.3,2.77,.73,4,1.3l-1.5,3.5c-.73-.33-1.52-.62-2.35-.85-.8-.27-1.62-.47-2.45-.6-.83-.17-1.68-.25-2.55-.25-1.8,0-3.18,.3-4.15,.9-.93,.57-1.4,1.35-1.4,2.35,0,.73,.22,1.37,.65,1.9,.43,.5,1.15,1,2.15,1.5,1.03,.47,2.4,1.03,4.1,1.7,1.7,.63,3.15,1.28,4.35,1.95,1.2,.67,2.12,1.48,2.75,2.45,.63,.93,.95,2.12,.95,3.55Zm23.93,0c0,1.73-.43,3.18-1.3,4.35-.87,1.17-2.1,2.05-3.7,2.65-1.6,.6-3.5,.9-5.7,.9-1.87,0-3.48-.15-4.85-.45-1.33-.3-2.52-.72-3.55-1.25v-4c1.07,.53,2.35,1.03,3.85,1.5,1.53,.43,3.08,.65,4.65,.65,2.23,0,3.85-.35,4.85-1.05,1-.73,1.5-1.7,1.5-2.9,0-.67-.18-1.27-.55-1.8-.37-.53-1.03-1.07-2-1.6-.93-.53-2.28-1.13-4.05-1.8-1.73-.67-3.22-1.33-4.45-2-1.23-.67-2.18-1.47-2.85-2.4-.67-.93-1-2.13-1-3.6,0-2.27,.92-4.02,2.75-5.25,1.87-1.23,4.3-1.85,7.3-1.85,1.63,0,3.15,.17,4.55,.5,1.43,.3,2.77,.73,4,1.3l-1.5,3.5c-.73-.33-1.52-.62-2.35-.85-.8-.27-1.62-.47-2.45-.6-.83-.17-1.68-.25-2.55-.25-1.8,0-3.18,.3-4.15,.9-.93,.57-1.4,1.35-1.4,2.35,0,.73,.22,1.37,.65,1.9,.43,.5,1.15,1,2.15,1.5,1.03,.47,2.4,1.03,4.1,1.7,1.7,.63,3.15,1.28,4.35,1.95,1.2,.67,2.12,1.48,2.75,2.45,.63,.93,.95,2.12,.95,3.55Zm16.83-19.9c2.3,0,4.27,.5,5.9,1.5,1.67,1,2.93,2.42,3.8,4.25,.9,1.8,1.35,3.92,1.35,6.35v2.65h-18.35c.07,3.03,.83,5.35,2.3,6.95,1.5,1.57,3.58,2.35,6.25,2.35,1.7,0,3.2-.15,4.5-.45,1.33-.33,2.7-.8,4.1-1.4v3.85c-1.37,.6-2.72,1.03-4.05,1.3-1.33,.3-2.92,.45-4.75,.45-2.53,0-4.78-.52-6.75-1.55-1.93-1.03-3.45-2.57-4.55-4.6-1.07-2.07-1.6-4.58-1.6-7.55s.48-5.45,1.45-7.55c1-2.1,2.38-3.72,4.15-4.85,1.8-1.13,3.88-1.7,6.25-1.7Zm-.05,3.6c-2.1,0-3.77,.68-5,2.05-1.2,1.33-1.92,3.2-2.15,5.6h13.65c0-1.53-.23-2.87-.7-4-.47-1.13-1.18-2.02-2.15-2.65-.93-.67-2.15-1-3.65-1Zm26.87,20.6c.67,0,1.35-.05,2.05-.15,.7-.13,1.27-.27,1.7-.4v3.35c-.47,.23-1.13,.42-2,.55-.87,.17-1.7,.25-2.5,.25-1.4,0-2.7-.23-3.9-.7-1.17-.5-2.12-1.35-2.85-2.55-.73-1.2-1.1-2.88-1.1-5.05v-15.6h-3.8v-2.1l3.85-1.75,1.75-5.7h2.6v6.15h7.75v3.4h-7.75v15.5c0,1.63,.38,2.85,1.15,3.65,.8,.77,1.82,1.15,3.05,1.15Zm26.57-4.3c0,1.73-.43,3.18-1.3,4.35-.87,1.17-2.1,2.05-3.7,2.65-1.6,.6-3.5,.9-5.7,.9-1.87,0-3.48-.15-4.85-.45-1.33-.3-2.52-.72-3.55-1.25v-4c1.07,.53,2.35,1.03,3.85,1.5,1.53,.43,3.08,.65,4.65,.65,2.23,0,3.85-.35,4.85-1.05,1-.73,1.5-1.7,1.5-2.9,0-.67-.18-1.27-.55-1.8-.37-.53-1.03-1.07-2-1.6-.93-.53-2.28-1.13-4.05-1.8-1.73-.67-3.22-1.33-4.45-2-1.23-.67-2.18-1.47-2.85-2.4-.67-.93-1-2.13-1-3.6,0-2.27,.92-4.02,2.75-5.25,1.87-1.23,4.3-1.85,7.3-1.85,1.63,0,3.15,.17,4.55,.5,1.43,.3,2.77,.73,4,1.3l-1.5,3.5c-.73-.33-1.52-.62-2.35-.85-.8-.27-1.62-.47-2.45-.6-.83-.17-1.68-.25-2.55-.25-1.8,0-3.18,.3-4.15,.9-.93,.57-1.4,1.35-1.4,2.35,0,.73,.22,1.37,.65,1.9,.43,.5,1.15,1,2.15,1.5,1.03,.47,2.4,1.03,4.1,1.7,1.7,.63,3.15,1.28,4.35,1.95,1.2,.67,2.12,1.48,2.75,2.45,.63,.93,.95,2.12,.95,3.55Z"/>
  <path class="cls-4" d="M0,23H116.02L170.16,1.63c2.65-1.05,5.6-1.02,8.24,.06l51.61,21.31"/>
  <path class="cls-3" d="M1,93H229"/>
  <path class="cls-1" d="M4.27,10.92l2.6-4.91h1.36l-3.33,6.12v3.88h-1.26v-3.82L.31,6H1.68l2.59,4.91Zm10.98,1.32c0,.63-.08,1.18-.25,1.67-.16,.48-.39,.88-.7,1.22-.3,.34-.67,.59-1.11,.77-.43,.17-.91,.25-1.44,.25-.49,0-.95-.08-1.37-.25-.42-.18-.78-.43-1.09-.77-.31-.34-.55-.74-.73-1.22-.17-.49-.25-1.04-.25-1.67,0-.83,.14-1.53,.42-2.1,.28-.58,.68-1.02,1.2-1.32,.52-.31,1.14-.46,1.86-.46,.68,0,1.28,.15,1.79,.46,.52,.3,.93,.74,1.22,1.32,.3,.57,.45,1.27,.45,2.1Zm-5.67,0c0,.59,.07,1.1,.22,1.54,.16,.43,.4,.76,.73,.99,.33,.23,.74,.35,1.25,.35s.92-.12,1.25-.35c.33-.23,.56-.56,.71-.99,.16-.44,.24-.95,.24-1.54s-.08-1.11-.24-1.53-.4-.74-.73-.97c-.32-.23-.73-.35-1.25-.35-.77,0-1.32,.25-1.67,.76-.35,.5-.52,1.2-.52,2.09Zm13.89-3.74v7.5h-1.01l-.18-.99h-.06c-.16,.26-.36,.48-.62,.64-.25,.17-.53,.29-.83,.36-.3,.08-.61,.13-.94,.13-.6,0-1.1-.09-1.51-.28-.4-.2-.7-.49-.91-.9-.21-.4-.31-.92-.31-1.55v-4.91h1.25v4.83c0,.6,.14,1.05,.41,1.34,.27,.3,.69,.45,1.26,.45s1-.1,1.32-.31c.33-.21,.56-.52,.69-.92,.14-.41,.21-.91,.21-1.48v-3.91h1.23Zm8.21,7.5h-3.61v-.73l1.18-.27V7.01l-1.18-.28v-.73h3.61v.73l-1.18,.28v7.99l1.18,.27v.73Zm5.37-7.64c.9,0,1.57,.22,2.03,.66,.46,.43,.69,1.13,.69,2.1v4.89h-1.22v-4.8c0-.61-.14-1.06-.41-1.36-.27-.3-.7-.45-1.27-.45-.83,0-1.4,.23-1.72,.7-.32,.47-.48,1.14-.48,2.02v3.89h-1.23v-7.5h.99l.18,1.02h.07c.17-.26,.37-.48,.62-.64,.25-.18,.53-.31,.83-.39,.3-.08,.61-.13,.92-.13Zm6.69,7.64l-2.84-7.5h1.32l1.6,4.42c.07,.21,.15,.43,.24,.69s.16,.49,.22,.73c.07,.22,.11,.42,.14,.57h.06c.04-.16,.09-.35,.15-.59,.07-.23,.15-.48,.24-.73,.09-.25,.17-.48,.24-.67l1.6-4.42h1.32l-2.86,7.5h-1.41Zm8.36-7.64c.64,0,1.19,.14,1.65,.42,.47,.28,.82,.68,1.06,1.19,.25,.5,.38,1.1,.38,1.78v.74h-5.14c.02,.85,.23,1.5,.64,1.95,.42,.44,1,.66,1.75,.66,.48,0,.9-.04,1.26-.13,.37-.09,.76-.22,1.15-.39v1.08c-.38,.17-.76,.29-1.13,.36-.37,.08-.82,.13-1.33,.13-.71,0-1.34-.14-1.89-.43-.54-.29-.97-.72-1.27-1.29-.3-.58-.45-1.28-.45-2.11s.14-1.53,.41-2.11c.28-.59,.67-1.04,1.16-1.36,.5-.32,1.09-.48,1.75-.48Zm-.01,1.01c-.59,0-1.05,.19-1.4,.57-.34,.37-.54,.9-.6,1.57h3.82c0-.43-.07-.8-.2-1.12-.13-.32-.33-.56-.6-.74-.26-.19-.6-.28-1.02-.28Zm9.9,4.56c0,.49-.12,.89-.36,1.22-.24,.33-.59,.57-1.04,.74-.45,.17-.98,.25-1.6,.25-.52,0-.98-.04-1.36-.13-.37-.08-.7-.2-.99-.35v-1.12c.3,.15,.66,.29,1.08,.42,.43,.12,.86,.18,1.3,.18,.63,0,1.08-.1,1.36-.29,.28-.21,.42-.48,.42-.81,0-.19-.05-.35-.15-.5-.1-.15-.29-.3-.56-.45-.26-.15-.64-.32-1.13-.5-.49-.19-.9-.37-1.25-.56-.35-.19-.61-.41-.8-.67-.19-.26-.28-.6-.28-1.01,0-.63,.26-1.12,.77-1.47,.52-.35,1.2-.52,2.04-.52,.46,0,.88,.05,1.27,.14,.4,.08,.77,.21,1.12,.36l-.42,.98c-.21-.09-.42-.17-.66-.24-.22-.07-.45-.13-.69-.17-.23-.05-.47-.07-.71-.07-.5,0-.89,.08-1.16,.25-.26,.16-.39,.38-.39,.66,0,.21,.06,.38,.18,.53,.12,.14,.32,.28,.6,.42,.29,.13,.67,.29,1.15,.48,.48,.18,.88,.36,1.22,.55,.34,.19,.59,.42,.77,.69,.18,.26,.27,.59,.27,.99Zm4.32,1.2c.19,0,.38-.01,.57-.04,.2-.04,.35-.07,.48-.11v.94c-.13,.07-.32,.12-.56,.15-.24,.05-.48,.07-.7,.07-.39,0-.76-.07-1.09-.2-.33-.14-.59-.38-.8-.71-.21-.34-.31-.81-.31-1.41v-4.37h-1.06v-.59l1.08-.49,.49-1.6h.73v1.72h2.17v.95h-2.17v4.34c0,.46,.11,.8,.32,1.02,.22,.21,.51,.32,.85,.32Zm8.46-9.28c.5,0,.93,.09,1.29,.27,.36,.17,.64,.41,.84,.73,.2,.32,.29,.7,.29,1.16,0,.59-.19,1.09-.57,1.5-.37,.41-.85,.78-1.43,1.12l2.7,2.6c.24-.29,.44-.62,.59-.99,.16-.38,.29-.79,.39-1.23h1.25c-.15,.6-.34,1.15-.56,1.67-.22,.51-.51,.96-.87,1.34l2.04,1.99h-1.67l-1.22-1.18c-.22,.2-.46,.38-.7,.55-.23,.16-.49,.29-.77,.41-.28,.11-.58,.2-.91,.27-.32,.07-.67,.1-1.06,.1-.64,0-1.2-.1-1.68-.31-.47-.21-.83-.53-1.09-.94-.25-.41-.38-.91-.38-1.5,0-.48,.08-.89,.25-1.23,.18-.35,.43-.65,.76-.92,.33-.27,.71-.53,1.15-.78-.2-.22-.39-.46-.57-.7-.19-.24-.34-.5-.46-.78-.12-.29-.18-.6-.18-.94,0-.46,.1-.85,.31-1.18,.21-.33,.5-.57,.88-.74,.39-.18,.85-.27,1.39-.27Zm-.62,5.38c-.34,.2-.63,.4-.87,.6-.23,.2-.42,.42-.55,.66-.13,.24-.2,.53-.2,.87,0,.51,.17,.92,.52,1.23,.35,.31,.81,.46,1.39,.46s1.11-.1,1.54-.29c.43-.2,.79-.43,1.08-.7l-2.91-2.83Zm.57-4.37c-.39,0-.71,.1-.97,.31-.24,.21-.36,.49-.36,.85,0,.34,.09,.65,.27,.94,.18,.28,.43,.59,.77,.94,.55-.32,.94-.62,1.18-.9,.24-.29,.36-.62,.36-.99,0-.34-.11-.61-.34-.83-.22-.21-.53-.32-.91-.32Zm15.83,9.14h-5.59V6h5.59v1.11h-4.33v3.12h4.07v1.09h-4.07v3.57h4.33v1.11Zm4.87-7.63c.91,0,1.59,.2,2.03,.6,.44,.4,.66,1.04,.66,1.92v5.11h-.9l-.24-1.06h-.06c-.21,.27-.44,.5-.67,.69-.22,.18-.49,.31-.78,.39-.29,.08-.64,.13-1.06,.13-.45,0-.85-.08-1.22-.24-.35-.16-.63-.4-.84-.73-.21-.34-.31-.76-.31-1.26,0-.75,.29-1.32,.88-1.72,.59-.41,1.49-.63,2.72-.67l1.27-.04v-.45c0-.63-.14-1.06-.41-1.3-.27-.24-.65-.36-1.15-.36-.39,0-.77,.06-1.12,.18-.35,.11-.69,.24-.99,.39l-.38-.92c.33-.18,.71-.33,1.16-.45,.45-.13,.91-.2,1.4-.2Zm.36,4c-.93,.04-1.58,.19-1.95,.45-.35,.26-.53,.63-.53,1.11,0,.42,.13,.73,.38,.92,.26,.2,.59,.29,.99,.29,.63,0,1.16-.17,1.58-.52,.42-.35,.63-.9,.63-1.62v-.67l-1.11,.04Zm8.14-4.02c.14,0,.29,0,.45,.03,.17,0,.31,.03,.43,.06l-.15,1.13c-.12-.03-.26-.05-.41-.07-.14-.02-.28-.03-.41-.03-.29,0-.57,.06-.83,.18-.26,.12-.49,.29-.7,.52-.21,.21-.37,.48-.49,.78-.11,.31-.17,.65-.17,1.04v4h-1.23v-7.5h1.01l.14,1.37h.06c.16-.28,.35-.53,.57-.76,.22-.23,.48-.42,.77-.55,.29-.14,.61-.21,.95-.21Zm5.89,0c.9,0,1.57,.22,2.03,.66,.46,.43,.69,1.13,.69,2.1v4.89h-1.22v-4.8c0-.61-.14-1.06-.41-1.36-.27-.3-.69-.45-1.27-.45-.83,0-1.4,.23-1.72,.7-.32,.47-.48,1.14-.48,2.02v3.89h-1.23v-7.5h.99l.18,1.02h.07c.17-.26,.37-.48,.62-.64,.25-.18,.53-.31,.83-.39,.3-.08,.61-.13,.92-.13Z"/>
  <path class="cls-1" d="M104.07,100l-2.66,10h-1.27l-1.95-6.55c-.06-.2-.11-.4-.17-.6s-.11-.4-.15-.59c-.05-.19-.09-.35-.13-.48-.03-.14-.05-.24-.06-.31,0,.07-.03,.17-.06,.31-.02,.13-.05,.29-.1,.48-.05,.19-.1,.39-.15,.6-.05,.21-.1,.42-.17,.63l-1.89,6.51h-1.27l-2.65-10h1.32l1.55,6.1c.06,.21,.11,.43,.15,.64,.05,.21,.09,.41,.13,.62,.05,.2,.08,.39,.11,.57,.03,.19,.06,.37,.08,.55,.03-.19,.06-.38,.08-.57,.04-.2,.08-.4,.13-.6,.05-.21,.1-.43,.15-.64,.06-.21,.11-.43,.17-.63l1.76-6.03h1.3l1.83,6.08c.07,.21,.13,.43,.18,.66,.06,.22,.11,.43,.15,.63,.05,.21,.08,.41,.11,.6,.04,.19,.07,.36,.1,.52,.03-.23,.07-.48,.11-.73,.05-.26,.1-.53,.17-.81,.07-.28,.14-.56,.21-.85l1.54-6.09h1.32Zm3.99,2.35c.64,0,1.19,.14,1.65,.42,.47,.28,.82,.68,1.06,1.19,.25,.5,.38,1.1,.38,1.78v.74h-5.14c.02,.85,.23,1.5,.64,1.95,.42,.44,1,.66,1.75,.66,.48,0,.9-.04,1.26-.13,.37-.09,.76-.22,1.15-.39v1.08c-.38,.17-.76,.29-1.13,.36-.37,.08-.82,.13-1.33,.13-.71,0-1.34-.14-1.89-.43-.54-.29-.97-.72-1.27-1.29-.3-.58-.45-1.28-.45-2.11s.14-1.53,.41-2.11c.28-.59,.67-1.04,1.16-1.36,.5-.32,1.09-.48,1.75-.48Zm-.01,1.01c-.59,0-1.06,.19-1.4,.57-.34,.37-.54,.9-.6,1.57h3.82c0-.43-.07-.8-.2-1.12-.13-.32-.33-.57-.6-.74-.26-.19-.6-.28-1.02-.28Zm12.44,6.64l-3.29-8.76h-.06c.02,.19,.03,.43,.04,.71,.02,.29,.03,.61,.04,.95,0,.34,.01,.68,.01,1.04v6.06h-1.16v-10h1.86l3.08,8.19h.06l3.14-8.19h1.85v10h-1.25v-6.15c0-.33,0-.65,.01-.97,0-.33,.02-.63,.04-.91,.02-.29,.03-.53,.04-.73h-.06l-3.33,8.75h-1.04Zm10.96-7.63c.92,0,1.59,.2,2.03,.6,.44,.4,.66,1.04,.66,1.92v5.11h-.9l-.24-1.06h-.06c-.21,.27-.44,.5-.67,.69-.22,.18-.49,.31-.78,.39-.29,.08-.64,.13-1.06,.13-.45,0-.85-.08-1.22-.24-.36-.16-.64-.4-.84-.73-.2-.34-.31-.76-.31-1.26,0-.75,.29-1.32,.88-1.72,.59-.41,1.49-.64,2.72-.67l1.27-.04v-.45c0-.62-.14-1.06-.41-1.3-.27-.24-.65-.36-1.15-.36-.39,0-.76,.06-1.12,.18-.35,.11-.69,.24-.99,.39l-.38-.92c.33-.18,.71-.33,1.16-.45,.45-.13,.91-.2,1.4-.2Zm.36,4c-.93,.04-1.58,.19-1.95,.45-.35,.26-.53,.63-.53,1.11,0,.42,.13,.73,.38,.92,.26,.2,.59,.29,.99,.29,.63,0,1.16-.17,1.58-.52,.42-.35,.63-.9,.63-1.62v-.67l-1.11,.04Zm8.25-4.02c.9,0,1.57,.22,2.03,.66,.46,.43,.69,1.13,.69,2.1v4.89h-1.22v-4.8c0-.61-.14-1.06-.41-1.36-.27-.3-.7-.45-1.27-.45-.83,0-1.4,.23-1.72,.7-.32,.47-.48,1.14-.48,2.02v3.89h-1.23v-7.5h.99l.18,1.02h.07c.17-.26,.37-.48,.62-.64,.25-.18,.53-.31,.83-.39,.3-.08,.61-.13,.92-.13Zm7.88,.01c.92,0,1.59,.2,2.03,.6,.44,.4,.66,1.04,.66,1.92v5.11h-.9l-.24-1.06h-.06c-.21,.27-.44,.5-.67,.69-.22,.18-.49,.31-.78,.39-.29,.08-.64,.13-1.06,.13-.45,0-.85-.08-1.22-.24-.36-.16-.64-.4-.84-.73-.2-.34-.31-.76-.31-1.26,0-.75,.29-1.32,.88-1.72,.59-.41,1.49-.64,2.72-.67l1.27-.04v-.45c0-.62-.14-1.06-.41-1.3-.27-.24-.65-.36-1.15-.36-.39,0-.76,.06-1.12,.18-.36,.11-.69,.24-.99,.39l-.38-.92c.33-.18,.71-.33,1.16-.45,.45-.13,.91-.2,1.4-.2Zm.36,4c-.93,.04-1.58,.19-1.95,.45-.35,.26-.53,.63-.53,1.11,0,.42,.13,.73,.38,.92,.26,.2,.59,.29,.99,.29,.63,0,1.16-.17,1.58-.52,.42-.35,.63-.9,.63-1.62v-.67l-1.11,.04Zm7.3-4.02c.49,0,.94,.09,1.33,.28,.4,.19,.74,.47,1.02,.85h.07l.17-.99h.98v7.63c0,.71-.12,1.3-.36,1.78-.24,.49-.61,.85-1.11,1.09-.49,.24-1.12,.36-1.89,.36-.54,0-1.04-.04-1.5-.13-.45-.08-.85-.19-1.2-.35v-1.13c.24,.12,.51,.22,.8,.31,.29,.09,.6,.16,.94,.21,.34,.05,.68,.07,1.04,.07,.64,0,1.15-.19,1.51-.57,.37-.37,.56-.89,.56-1.54v-.29c0-.11,0-.27,.01-.48,0-.22,.02-.36,.03-.45h-.06c-.26,.38-.59,.67-.98,.85-.38,.19-.83,.28-1.34,.28-.97,0-1.73-.34-2.28-1.02-.54-.68-.81-1.63-.81-2.86,0-.8,.12-1.49,.36-2.07,.25-.59,.61-1.04,1.06-1.36,.46-.32,1.01-.48,1.65-.48Zm.17,1.04c-.42,0-.78,.11-1.08,.34-.29,.22-.51,.55-.67,.98-.15,.43-.22,.95-.22,1.57,0,.92,.17,1.63,.5,2.13,.35,.49,.84,.73,1.5,.73,.38,0,.71-.05,.98-.14,.27-.1,.49-.26,.67-.46,.18-.21,.31-.49,.39-.81,.08-.33,.13-.71,.13-1.16v-.29c0-.68-.08-1.23-.24-1.65-.15-.42-.39-.73-.71-.92-.33-.2-.74-.29-1.25-.29Zm8.68-1.04c.64,0,1.19,.14,1.65,.42,.47,.28,.82,.68,1.06,1.19,.25,.5,.38,1.1,.38,1.78v.74h-5.14c.02,.85,.23,1.5,.64,1.95,.42,.44,1,.66,1.75,.66,.48,0,.9-.04,1.26-.13,.37-.09,.76-.22,1.15-.39v1.08c-.38,.17-.76,.29-1.13,.36-.37,.08-.82,.13-1.33,.13-.71,0-1.34-.14-1.89-.43-.54-.29-.97-.72-1.27-1.29-.3-.58-.45-1.28-.45-2.11s.13-1.53,.41-2.11c.28-.59,.67-1.04,1.16-1.36,.5-.32,1.09-.48,1.75-.48Zm-.01,1.01c-.59,0-1.06,.19-1.4,.57-.34,.37-.54,.9-.6,1.57h3.82c0-.43-.07-.8-.2-1.12-.13-.32-.33-.57-.6-.74-.26-.19-.6-.28-1.02-.28Zm10.93-3.51c.5,0,.93,.09,1.29,.27,.36,.17,.64,.41,.84,.73s.29,.71,.29,1.16c0,.59-.19,1.09-.57,1.5-.37,.41-.85,.78-1.43,1.12l2.7,2.6c.24-.29,.44-.62,.59-.99,.16-.38,.29-.79,.39-1.23h1.25c-.15,.6-.34,1.15-.56,1.67s-.51,.96-.87,1.34l2.04,1.99h-1.67l-1.22-1.18c-.22,.2-.46,.38-.7,.55-.23,.16-.49,.29-.77,.41s-.58,.2-.91,.27c-.32,.07-.67,.1-1.06,.1-.64,0-1.2-.1-1.68-.31-.47-.22-.83-.53-1.09-.94-.25-.41-.38-.91-.38-1.5,0-.48,.08-.89,.25-1.23,.18-.35,.43-.65,.76-.92,.33-.27,.71-.53,1.15-.78-.2-.22-.39-.46-.57-.7-.19-.24-.34-.5-.46-.78-.12-.29-.18-.6-.18-.94,0-.46,.1-.85,.31-1.18,.21-.33,.5-.57,.88-.74,.39-.18,.85-.27,1.39-.27Zm-.62,5.38c-.34,.2-.62,.4-.87,.6-.23,.2-.42,.41-.55,.66-.13,.24-.2,.53-.2,.87,0,.51,.17,.92,.52,1.23s.81,.46,1.39,.46,1.11-.1,1.54-.29,.79-.43,1.08-.7l-2.91-2.83Zm.57-4.37c-.39,0-.71,.1-.97,.31-.24,.21-.36,.49-.36,.85,0,.34,.09,.65,.27,.94,.18,.28,.43,.59,.77,.94,.55-.32,.94-.62,1.18-.9,.24-.29,.36-.62,.36-.99,0-.34-.11-.61-.34-.83-.22-.22-.53-.32-.91-.32Zm13-.85c.83,0,1.51,.11,2.04,.32,.54,.21,.94,.52,1.2,.94,.26,.42,.39,.95,.39,1.58,0,.53-.1,.97-.29,1.33-.2,.35-.45,.64-.76,.85-.3,.21-.62,.37-.95,.49l2.74,4.48h-1.47l-2.42-4.13h-1.99v4.13h-1.26v-10h2.76Zm-.07,1.09h-1.43v3.71h1.5c.54,0,.98-.07,1.33-.21,.35-.15,.6-.36,.76-.64,.17-.28,.25-.63,.25-1.05s-.09-.79-.27-1.05c-.17-.26-.43-.45-.78-.57-.35-.12-.81-.18-1.36-.18Zm8.75,1.26c.64,0,1.19,.14,1.65,.42,.47,.28,.82,.68,1.06,1.19,.25,.5,.38,1.1,.38,1.78v.74h-5.14c.02,.85,.23,1.5,.64,1.95,.42,.44,1,.66,1.75,.66,.48,0,.9-.04,1.26-.13,.37-.09,.76-.22,1.15-.39v1.08c-.38,.17-.76,.29-1.13,.36-.37,.08-.82,.13-1.33,.13-.71,0-1.34-.14-1.89-.43-.54-.29-.97-.72-1.27-1.29-.3-.58-.45-1.28-.45-2.11s.14-1.53,.41-2.11c.28-.59,.67-1.04,1.16-1.36,.5-.32,1.09-.48,1.75-.48Zm-.01,1.01c-.59,0-1.05,.19-1.4,.57-.34,.37-.54,.9-.6,1.57h3.82c0-.43-.07-.8-.2-1.12-.13-.32-.33-.57-.6-.74-.26-.19-.6-.28-1.02-.28Zm8.59-1.01c.92,0,1.67,.32,2.23,.97,.57,.64,.85,1.61,.85,2.91,0,.85-.13,1.57-.39,2.16-.25,.58-.61,1.02-1.08,1.32-.46,.29-1,.43-1.62,.43-.38,0-.72-.05-1.02-.15s-.55-.23-.77-.39c-.21-.17-.38-.35-.53-.55h-.08c.02,.16,.04,.36,.06,.6,.02,.24,.03,.45,.03,.63v3.08h-1.23v-10.86h1.01l.17,1.02h.06c.15-.21,.33-.41,.53-.59,.21-.18,.47-.32,.76-.42,.3-.1,.65-.15,1.05-.15Zm-.22,1.04c-.5,0-.91,.1-1.22,.29-.31,.19-.53,.47-.67,.85-.14,.38-.21,.87-.22,1.46v.24c0,.62,.07,1.14,.2,1.57,.13,.43,.35,.76,.66,.98,.32,.22,.75,.34,1.29,.34,.46,0,.83-.13,1.12-.38,.3-.25,.52-.59,.66-1.02,.15-.44,.22-.94,.22-1.5,0-.86-.17-1.54-.5-2.06-.33-.51-.83-.77-1.53-.77Zm11.79,2.84c0,.62-.08,1.18-.25,1.67-.16,.48-.39,.88-.7,1.22-.3,.34-.67,.59-1.11,.77-.43,.17-.91,.25-1.44,.25-.49,0-.95-.08-1.37-.25-.42-.18-.78-.43-1.09-.77-.31-.34-.55-.74-.73-1.22-.17-.49-.25-1.04-.25-1.67,0-.83,.14-1.53,.42-2.1,.28-.58,.68-1.02,1.2-1.32,.52-.31,1.14-.46,1.86-.46s1.28,.15,1.79,.46c.52,.3,.93,.74,1.22,1.32,.3,.57,.45,1.27,.45,2.1Zm-5.67,0c0,.59,.08,1.1,.22,1.54,.16,.43,.4,.76,.73,.99,.33,.23,.74,.35,1.25,.35s.92-.12,1.25-.35c.33-.23,.57-.56,.71-.99,.16-.44,.24-.95,.24-1.54s-.08-1.11-.24-1.53c-.16-.42-.4-.74-.73-.97-.32-.23-.73-.35-1.25-.35-.76,0-1.32,.25-1.67,.76-.35,.5-.52,1.2-.52,2.09Zm11.12-3.88c.14,0,.29,0,.45,.03,.17,0,.31,.03,.43,.06l-.15,1.13c-.12-.03-.26-.05-.41-.07-.14-.02-.28-.03-.41-.03-.29,0-.57,.06-.83,.18-.26,.12-.49,.29-.7,.52-.21,.21-.37,.48-.49,.78-.11,.31-.17,.65-.17,1.04v4h-1.23v-7.5h1.01l.14,1.37h.06c.16-.28,.35-.53,.57-.76,.22-.23,.48-.42,.77-.55,.29-.14,.61-.21,.95-.21Zm4.79,6.78c.19,0,.38-.01,.57-.04,.2-.04,.35-.07,.48-.11v.94c-.13,.07-.32,.12-.56,.15-.24,.05-.48,.07-.7,.07-.39,0-.76-.07-1.09-.2-.33-.14-.59-.38-.8-.71-.21-.34-.31-.81-.31-1.41v-4.37h-1.06v-.59l1.08-.49,.49-1.6h.73v1.72h2.17v.95h-2.17v4.34c0,.46,.11,.8,.32,1.02,.22,.22,.51,.32,.85,.32Z"/>
  <path class="cls-1" d="M83.13,70.8c-.39,1.03,.14,2.19,1.17,2.57,1.03,.39,2.19-.14,2.57-1.17l-3.75-1.4Zm14.37-32.8l1.86-.75c-.31-.77-1.06-1.26-1.88-1.25-.83,.01-1.56,.53-1.85,1.3l1.87,.7Zm11.64,34.25c.41,1.02,1.58,1.52,2.6,1.11,1.02-.41,1.52-1.58,1.11-2.6l-3.71,1.5Zm-9.64-11.31c1.11,0,2-.9,2-2s-.89-2-2-2v4Zm-3.86-22.19l13.5,33.5,3.71-1.5-13.5-33.5-3.71,1.5Zm-2.52,16.7l6.25-16.75-3.75-1.4-6.25,16.75,3.75,1.4Zm-6.25,16.75l4.69-12.56-3.75-1.4-4.69,12.56,3.75,1.4Zm2.81-11.26h9.81v-4h-9.81v4Zm1.87-1.3l1.56-4.19-3.75-1.4-1.56,4.19,3.75,1.4Z"/>
</svg>